<svg width="80" height="74" viewBox="0 0 80 74" fill="none" xmlns="http://www.w3.org/2000/svg">
<path d="M78.1765 41.1176V22.5882C78.1765 17.1279 76.0074 11.8912 72.1463 8.03015C68.2853 4.16911 63.0486 2 57.5882 2H22.5882C17.1279 2 11.8912 4.16911 8.03015 8.03015C4.16911 11.8912 2 17.1279 2 22.5882V51.4118C2 54.1155 2.53253 56.7927 3.56719 59.2905C4.60184 61.7884 6.11836 64.0581 8.03015 65.9698C11.8912 69.8309 17.1279 72 22.5882 72H48.3647" stroke="#979797" stroke-width="2.8" stroke-linecap="round" stroke-linejoin="round"/>
<path d="M3.07129 57.5896L14.3536 44.4132C15.8353 42.9416 17.78 42.0271 19.8584 41.8245C21.9369 41.6219 24.0215 42.1436 25.7595 43.3014C27.4975 44.4592 29.5821 44.9809 31.6606 44.7783C33.7391 44.5757 35.6837 43.6613 37.1654 42.1897L46.7595 32.5955C49.5163 29.8294 53.1662 28.1329 57.0579 27.8085C60.9497 27.4842 64.83 28.5533 68.0066 30.8249L78.1772 38.6896M23.6595 29.4661C24.5571 29.4607 25.4449 29.2786 26.2721 28.9301C27.0994 28.5816 27.8499 28.0735 28.4807 27.435C29.1116 26.7965 29.6106 26.0399 29.9491 25.2085C30.2876 24.3772 30.459 23.4873 30.4536 22.5897C30.4482 21.692 30.2661 20.8043 29.9176 19.977C29.5691 19.1498 29.0611 18.3993 28.4225 17.7684C27.784 17.1375 27.0274 16.6386 26.1961 16.3001C25.3647 15.9616 24.4748 15.7901 23.5772 15.7955C21.7643 15.8065 20.0301 16.5371 18.756 17.8267C17.4818 19.1162 16.7721 20.8592 16.7831 22.672C16.794 24.4848 17.5246 26.2191 18.8142 27.4932C20.1038 28.7674 21.8467 29.477 23.6595 29.4661Z" stroke="#979797" stroke-width="2.8" stroke-linecap="round" stroke-linejoin="round"/>
<path d="M67.7061 49.3542V69.9425" stroke="#979797" stroke-width="2.8" stroke-miterlimit="10" stroke-linecap="round"/>
<path d="M77.1462 58.02L69.0468 49.9206C68.8714 49.7428 68.6624 49.6017 68.4319 49.5053C68.2015 49.409 67.9542 49.3594 67.7045 49.3594C67.4547 49.3594 67.2074 49.409 66.977 49.5053C66.7465 49.6017 66.5375 49.7428 66.3621 49.9206L58.2627 58.02" stroke="#979797" stroke-width="2.8" stroke-linecap="round" stroke-linejoin="round"/>
</svg>
